<svg width="720" height="180" viewBox="0 0 720 180" fill="none" xmlns="http://www.w3.org/2000/svg">
  <defs>
    <linearGradient id="ip-bg-light" x1="90" y1="18" x2="90" y2="162" gradientUnits="userSpaceOnUse">
      <stop stop-color="#284C86"/>
      <stop offset="1" stop-color="#19365E"/>
    </linearGradient>
  </defs>

  <rect x="18" y="18" width="144" height="144" rx="44" fill="url(#ip-bg-light)"/>
  <rect x="18" y="18" width="18" height="144" rx="9" fill="#38A169"/>
  <rect x="36" y="18" width="18" height="144" fill="#FFF9EF"/>
  <rect x="54" y="18" width="18" height="144" fill="#E0534F"/>

  <path d="M104 49C117.807 49 129 60.1929 129 74V106C129 129.196 110.196 148 87 148H72V127H86.5C97.8218 127 107 117.822 107 106.5V75C107 69.4772 102.523 65 97 65H91V148H69V49H104Z" fill="#F8FAFC"/>
  <path d="M112 30C121.941 30 130 38.0589 130 48C130 57.9411 121.941 66 112 66C102.059 66 94 57.9411 94 48C94 38.0589 102.059 30 112 30Z" fill="#E6B325"/>

  <text x="194" y="78" fill="#FFFFFF" font-family="Plus Jakarta Sans, Segoe UI, Arial, sans-serif" font-size="48" font-weight="800" letter-spacing="-1.5">
    Italiani
  </text>
  <text x="430" y="78" fill="#E6B325" font-family="Plus Jakarta Sans, Segoe UI, Arial, sans-serif" font-size="48" font-weight="800" letter-spacing="-1.5">
    Pro
  </text>
  <text x="196" y="112" fill="#C4D1DF" font-family="Plus Jakarta Sans, Segoe UI, Arial, sans-serif" font-size="20" font-weight="600" letter-spacing="0.5">
    Dossier, CV et candidatures pour travailler en Italie
  </text>
</svg>
